<?xml version="1.0" standalone="no"?>
<!DOCTYPE svg PUBLIC "-//W3C//DTD SVG 20010904//EN"
 "http://www.w3.org/TR/2001/REC-SVG-20010904/DTD/svg10.dtd">
<svg version="1.0" xmlns="http://www.w3.org/2000/svg"
 width="96.000000pt" height="96.000000pt" viewBox="0 0 96.000000 96.000000"
 preserveAspectRatio="xMidYMid meet">

<g transform="translate(0.000000,96.000000) scale(0.100000,-0.100000)"
fill="#000000" stroke="none">
<path d="M290 900 c0 -13 -7 -20 -19 -20 -10 0 -21 -9 -24 -20 -3 -11 -12 -20
-21 -20 -14 0 -16 -25 -16 -210 l0 -210 270 0 c263 0 270 0 270 20 0 13 7 20
20 20 13 0 20 7 20 20 0 13 7 20 20 20 19 0 20 7 20 190 0 179 -1 190 -19 190
-10 0 -21 -9 -24 -20 -3 -11 -12 -20 -21 -20 -9 0 -16 -7 -16 -15 0 -8 -9 -15
-20 -15 -11 0 -20 7 -20 15 0 8 9 15 20 15 13 0 20 7 20 20 0 13 7 20 20 20
13 0 20 7 20 20 0 19 -7 20 -250 20 -243 0 -250 -1 -250 -20z m360 -265 l0
-115 -170 0 -170 0 0 115 0 115 170 0 170 0 0 -115z"/>
<path d="M860 480 c0 -11 -6 -20 -14 -20 -7 0 -16 -9 -19 -20 -3 -11 -12 -20
-21 -20 -14 0 -16 -18 -16 -135 0 -117 2 -135 16 -135 9 0 18 9 21 20 3 11 12
20 19 20 8 0 14 9 14 20 0 13 7 20 20 20 19 0 20 7 20 135 0 128 -1 135 -20
135 -13 0 -20 -7 -20 -20z"/>
<path d="M132 268 l3 -113 308 -3 307 -2 0 115 0 115 -310 0 -311 0 3 -112z
m538 22 c0 -13 -7 -20 -20 -20 -13 0 -20 -7 -20 -20 0 -11 -6 -20 -14 -20 -7
0 -16 9 -19 20 -5 18 -14 20 -81 20 -69 0 -76 2 -76 20 0 19 7 20 115 20 108
0 115 -1 115 -20z m-400 -40 c0 -13 -7 -20 -20 -20 -13 0 -20 7 -20 20 0 13 7
20 20 20 13 0 20 -7 20 -20z"/>
<path d="M60 80 l0 -40 325 0 c318 0 325 0 325 20 0 14 7 20 21 20 14 0 19 5
17 17 -3 17 -29 18 -346 21 l-342 2 0 -40z"/>
</g>
</svg>
